<svg width="9" height="9" viewBox="0 0 9 9" fill="none" xmlns="http://www.w3.org/2000/svg">
<path d="M7.86219 6.31469L5.63844 4.09219L7.86094 1.86969C8.28844 1.44344 8.28844 0.749688 7.86094 0.323438C7.43344 -0.106562 6.74219 -0.105312 6.31469 0.322188L4.09094 2.54469L1.86719 0.319688C1.43969 -0.107812 0.747187 -0.105312 0.319687 0.319688C-0.106562 0.747188 -0.106562 1.44094 0.319687 1.86719L2.54469 4.09219L0.324687 6.31094C-0.102812 6.73844 -0.102812 7.43219 0.324687 7.85719C0.538437 8.07219 0.817187 8.17844 1.09719 8.17844C1.37844 8.17844 1.65719 8.07219 1.87094 7.85844L4.09094 5.63844L6.31594 7.86219C6.52969 8.07594 6.80844 8.18219 7.08844 8.18219C7.36844 8.18219 7.64844 8.07469 7.86219 7.86219C8.28969 7.43469 8.28969 6.74219 7.86219 6.31469Z" fill="black"/>
</svg>
