<svg width="72" height="20" viewBox="0 0 72 20" fill="none" xmlns="http://www.w3.org/2000/svg">
<path d="M20.4518 20V0H33.9837V3.1773H24.1113V8.39716H32.5652V11.5745H24.1113V16.8227H33.9837V20H20.4518Z" fill="#1F1F21"/>
<path d="M35.967 0H39.655L45.3004 19.0638H46.2365L51.9103 0H55.5983L49.5273 20H42.0096L35.967 0Z" fill="#1F1F21"/>
<path d="M57.6027 20V0H71.1346V3.1773H61.2623V8.39716H69.7162V11.5745H61.2623V16.8227H71.1346V20H57.6027Z" fill="#1F1F21"/>
<path d="M6.97872 0C8.11347 0 9.13475 0.0661941 10.0426 0.198582C10.9693 0.330969 11.9149 0.614657 12.8794 1.04965C13.844 1.46572 14.6478 2.0331 15.2908 2.75177C15.9338 3.45154 16.4634 4.41608 16.8794 5.64539C17.2955 6.8747 17.5035 8.32151 17.5035 9.98582C17.5035 11.6501 17.2955 13.0969 16.8794 14.3262C16.4634 15.5556 15.9338 16.5296 15.2908 17.2482C14.6478 17.948 13.844 18.5154 12.8794 18.9504C11.9149 19.3853 10.9693 19.669 10.0426 19.8014C9.13475 19.9338 8.11347 20 6.97872 20H0V3.1773V0H6.97872ZM6.97872 16.8227C7.82979 16.8227 8.52955 16.7943 9.07801 16.7376C9.64539 16.6808 10.26 16.5201 10.922 16.2553C11.5839 15.9905 12.104 15.6312 12.4823 15.1773C12.8794 14.7045 13.2104 14.0331 13.4752 13.1631C13.74 12.2742 13.8723 11.2151 13.8723 9.98582C13.8723 8.94563 13.7872 8.03782 13.617 7.26241C13.4468 6.487 13.1915 5.86288 12.8511 5.39007C12.5106 4.89834 12.1513 4.50118 11.773 4.19858C11.3948 3.89598 10.9125 3.67849 10.3262 3.5461C9.73995 3.3948 9.2104 3.30024 8.73759 3.26241C8.26477 3.20567 7.67849 3.1773 6.97872 3.1773H0V6.70214H3.65957V16.8227H6.97872Z" fill="#1F1F21"/>
</svg>
